<svg width="34" height="37" viewBox="0 0 34 37" fill="none" xmlns="http://www.w3.org/2000/svg">
<rect width="33.0847" height="36.3396" rx="16.5424" fill="#6D6D6D"/>
<g clip-path="url(#clip0_1_66)">
<rect width="22.0565" height="24.2264" transform="translate(6.89265 7.57076)" fill="#6D6D6D"/>
<path d="M11.5174 28.4556C12.4998 28.4556 13.2962 27.3335 13.2962 25.9494C13.2962 24.5653 12.4998 23.4432 11.5174 23.4432C10.535 23.4432 9.73866 24.5653 9.73866 25.9494C9.73866 27.3335 10.535 28.4556 11.5174 28.4556Z" stroke="black" stroke-width="2" stroke-linecap="round" stroke-linejoin="round"/>
<path d="M20.4112 10.9123H7.60416V23.4432H20.4112V10.9123Z" stroke="black" stroke-width="2" stroke-linecap="round" stroke-linejoin="round"/>
<path d="M20.4111 15.9247H23.6637L26.1031 18.7442V23.4432H20.4111V15.9247Z" stroke="black" stroke-width="2" stroke-linecap="round" stroke-linejoin="round"/>
<path d="M23.8945 28.7689C25.1634 28.7689 26.1921 27.639 26.1921 26.2453C26.1921 24.8515 25.1634 23.7217 23.8945 23.7217C22.6256 23.7217 21.597 24.8515 21.597 26.2453C21.597 27.639 22.6256 28.7689 23.8945 28.7689Z" stroke="black" stroke-width="2" stroke-linecap="round" stroke-linejoin="round"/>
</g>
<defs>
<clipPath id="clip0_1_66">
<rect width="22.0565" height="24.2264" fill="white" transform="translate(6.89265 7.57076)"/>
</clipPath>
</defs>
</svg>
