<svg width="38" height="40" viewBox="0 0 38 40" fill="none" xmlns="http://www.w3.org/2000/svg">
<ellipse cx="18.6102" cy="19.684" rx="18.6102" ry="19.684" fill="#6D6D6D"/>
<g clip-path="url(#clip0_3_89)">
<path d="M27.4236 12.5151C26.9542 11.967 26.3969 11.5323 25.7835 11.2356C25.1701 10.939 24.5126 10.7863 23.8486 10.7863C23.1846 10.7863 22.5271 10.939 21.9137 11.2356C21.3003 11.5323 20.743 11.967 20.2736 12.5151L19.2994 13.6519L18.3253 12.5151C17.3771 11.4086 16.0912 10.7869 14.7503 10.7869C13.4094 10.7869 12.1234 11.4086 11.1753 12.5151C10.2272 13.6216 9.69449 15.1223 9.69449 16.6872C9.69449 18.252 10.2272 19.7528 11.1753 20.8593L12.1495 21.9962L19.2994 30.3404L26.4494 21.9962L27.4236 20.8593C27.8932 20.3115 28.2657 19.6611 28.5199 18.9452C28.7741 18.2294 28.9049 17.4621 28.9049 16.6872C28.9049 15.9123 28.7741 15.145 28.5199 14.4291C28.2657 13.7133 27.8932 13.0629 27.4236 12.5151Z" stroke="black" stroke-width="2" stroke-linecap="round" stroke-linejoin="round"/>
</g>
<defs>
<clipPath id="clip0_3_89">
<rect width="22.0565" height="25.7406" fill="white" transform="translate(8.27118 7.57074)"/>
</clipPath>
</defs>
</svg>
